%TF.GenerationSoftware,KiCad,Pcbnew,6.0.2+dfsg-1*%
%TF.CreationDate,2023-04-19T21:44:12+02:00*%
%TF.ProjectId,login-controller,6c6f6769-6e2d-4636-9f6e-74726f6c6c65,rev?*%
%TF.SameCoordinates,Original*%
%TF.FileFunction,Copper,L1,Top*%
%TF.FilePolarity,Positive*%
%FSLAX46Y46*%
G04 Gerber Fmt 4.6, Leading zero omitted, Abs format (unit mm)*
G04 Created by KiCad (PCBNEW 6.0.2+dfsg-1) date 2023-04-19 21:44:12*
%MOMM*%
%LPD*%
G01*
G04 APERTURE LIST*
G04 Aperture macros list*
%AMRoundRect*
0 Rectangle with rounded corners*
0 $1 Rounding radius*
0 $2 $3 $4 $5 $6 $7 $8 $9 X,Y pos of 4 corners*
0 Add a 4 corners polygon primitive as box body*
4,1,4,$2,$3,$4,$5,$6,$7,$8,$9,$2,$3,0*
0 Add four circle primitives for the rounded corners*
1,1,$1+$1,$2,$3*
1,1,$1+$1,$4,$5*
1,1,$1+$1,$6,$7*
1,1,$1+$1,$8,$9*
0 Add four rect primitives between the rounded corners*
20,1,$1+$1,$2,$3,$4,$5,0*
20,1,$1+$1,$4,$5,$6,$7,0*
20,1,$1+$1,$6,$7,$8,$9,0*
20,1,$1+$1,$8,$9,$2,$3,0*%
G04 Aperture macros list end*
%TA.AperFunction,ComponentPad*%
%ADD10R,1.560000X1.560000*%
%TD*%
%TA.AperFunction,ComponentPad*%
%ADD11C,1.560000*%
%TD*%
%TA.AperFunction,ComponentPad*%
%ADD12R,1.700000X1.700000*%
%TD*%
%TA.AperFunction,ComponentPad*%
%ADD13O,1.700000X1.700000*%
%TD*%
%TA.AperFunction,ComponentPad*%
%ADD14R,1.524000X1.524000*%
%TD*%
%TA.AperFunction,ComponentPad*%
%ADD15C,1.524000*%
%TD*%
%TA.AperFunction,SMDPad,CuDef*%
%ADD16RoundRect,0.250000X0.625000X-0.400000X0.625000X0.400000X-0.625000X0.400000X-0.625000X-0.400000X0*%
%TD*%
%TA.AperFunction,ComponentPad*%
%ADD17R,1.600000X1.600000*%
%TD*%
%TA.AperFunction,ComponentPad*%
%ADD18O,1.600000X1.600000*%
%TD*%
%TA.AperFunction,ComponentPad*%
%ADD19C,1.600000*%
%TD*%
%TA.AperFunction,SMDPad,CuDef*%
%ADD20RoundRect,0.250000X0.450000X-0.262500X0.450000X0.262500X-0.450000X0.262500X-0.450000X-0.262500X0*%
%TD*%
%TA.AperFunction,ComponentPad*%
%ADD21R,3.000000X3.000000*%
%TD*%
%TA.AperFunction,ComponentPad*%
%ADD22C,3.000000*%
%TD*%
%TA.AperFunction,ViaPad*%
%ADD23C,0.800000*%
%TD*%
%TA.AperFunction,Conductor*%
%ADD24C,0.250000*%
%TD*%
G04 APERTURE END LIST*
D10*
%TO.P,U1,J2-1,3V3*%
%TO.N,+3V3*%
X132080000Y-48820000D03*
D11*
%TO.P,U1,J2-2,EN*%
%TO.N,JTAG_RST*%
X132080000Y-51360000D03*
%TO.P,U1,J2-3,SENSOR_VP*%
%TO.N,DIP_1*%
X132080000Y-53900000D03*
%TO.P,U1,J2-4,SENSOR_VN*%
%TO.N,DIP_2*%
X132080000Y-56440000D03*
%TO.P,U1,J2-5,IO34*%
%TO.N,DIP_3*%
X132080000Y-58980000D03*
%TO.P,U1,J2-6,IO35*%
%TO.N,DIP_4*%
X132080000Y-61520000D03*
%TO.P,U1,J2-7,IO32*%
%TO.N,SD_CS*%
X132080000Y-64060000D03*
%TO.P,U1,J2-8,IO33*%
%TO.N,unconnected-(U1-PadJ2-8)*%
X132080000Y-66600000D03*
%TO.P,U1,J2-9,IO25*%
%TO.N,SD_SCL*%
X132080000Y-69140000D03*
%TO.P,U1,J2-10,IO26*%
%TO.N,SD_MOSI*%
X132080000Y-71680000D03*
%TO.P,U1,J2-11,IO27*%
%TO.N,SD_MISO*%
X132080000Y-74220000D03*
%TO.P,U1,J2-12,IO14*%
%TO.N,JTAG_TMS*%
X132080000Y-76760000D03*
%TO.P,U1,J2-13,IO12*%
%TO.N,JTAG_TDI*%
X132080000Y-79300000D03*
%TO.P,U1,J2-14,GND1*%
%TO.N,GND*%
X132080000Y-81840000D03*
%TO.P,U1,J2-15,IO13*%
%TO.N,JTAG_TCK*%
X132080000Y-84380000D03*
%TO.P,U1,J2-16,SD2*%
%TO.N,unconnected-(U1-PadJ2-16)*%
X132080000Y-86920000D03*
%TO.P,U1,J2-17,SD3*%
%TO.N,unconnected-(U1-PadJ2-17)*%
X132080000Y-89460000D03*
%TO.P,U1,J2-18,CMD*%
%TO.N,unconnected-(U1-PadJ2-18)*%
X132080000Y-92000000D03*
%TO.P,U1,J2-19,EXT_5V*%
%TO.N,+5V*%
X132080000Y-94540000D03*
%TO.P,U1,J3-1,GND3*%
%TO.N,GND*%
X157480000Y-48820000D03*
%TO.P,U1,J3-2,IO23*%
%TO.N,PN532_MOSI*%
X157480000Y-51360000D03*
%TO.P,U1,J3-3,IO22*%
%TO.N,unconnected-(U1-PadJ3-3)*%
X157480000Y-53900000D03*
%TO.P,U1,J3-4,TXD0*%
%TO.N,unconnected-(U1-PadJ3-4)*%
X157480000Y-56440000D03*
%TO.P,U1,J3-5,RXD0*%
%TO.N,unconnected-(U1-PadJ3-5)*%
X157480000Y-58980000D03*
%TO.P,U1,J3-6,IO21*%
%TO.N,DIP_7*%
X157480000Y-61520000D03*
%TO.P,U1,J3-7,GND2*%
%TO.N,GND*%
X157480000Y-64060000D03*
%TO.P,U1,J3-8,IO19*%
%TO.N,PN532_MISO*%
X157480000Y-66600000D03*
%TO.P,U1,J3-9,IO18*%
%TO.N,PN532_CLK*%
X157480000Y-69140000D03*
%TO.P,U1,J3-10,IO5*%
%TO.N,PN532_SS*%
X157480000Y-71680000D03*
%TO.P,U1,J3-11,IO17*%
%TO.N,PN532_IRQ*%
X157480000Y-74220000D03*
%TO.P,U1,J3-12,IO16*%
%TO.N,DIP_5*%
X157480000Y-76760000D03*
%TO.P,U1,J3-13,IO4*%
%TO.N,DIP_6*%
X157480000Y-79300000D03*
%TO.P,U1,J3-14,IO0*%
%TO.N,unconnected-(U1-PadJ3-14)*%
X157480000Y-81840000D03*
%TO.P,U1,J3-15,IO2*%
%TO.N,DIP_8*%
X157480000Y-84380000D03*
%TO.P,U1,J3-16,IO15*%
%TO.N,JTAG_TDO*%
X157480000Y-86920000D03*
%TO.P,U1,J3-17,SD1*%
%TO.N,unconnected-(U1-PadJ3-17)*%
X157480000Y-89460000D03*
%TO.P,U1,J3-18,SD0*%
%TO.N,unconnected-(U1-PadJ3-18)*%
X157480000Y-92000000D03*
%TO.P,U1,J3-19,CLK*%
%TO.N,unconnected-(U1-PadJ3-19)*%
X157480000Y-94540000D03*
%TD*%
D12*
%TO.P,U2,1,SCK*%
%TO.N,PN532_CLK*%
X166500000Y-73660000D03*
D13*
%TO.P,U2,2,MISO*%
%TO.N,PN532_MISO*%
X166500000Y-71120000D03*
%TO.P,U2,3,MOSI*%
%TO.N,PN532_MOSI*%
X166500000Y-68580000D03*
%TO.P,U2,4,SS*%
%TO.N,PN532_SS*%
X166500000Y-66040000D03*
%TO.P,U2,5,VCC*%
%TO.N,+3V3*%
X166500000Y-63500000D03*
%TO.P,U2,6,GND*%
%TO.N,GND*%
X166500000Y-60960000D03*
%TO.P,U2,7,IRQ*%
%TO.N,PN532_IRQ*%
X166500000Y-58420000D03*
%TO.P,U2,8,RSTO*%
%TO.N,unconnected-(U2-Pad8)*%
X166500000Y-55880000D03*
%TD*%
D14*
%TO.P,U3,1,CS*%
%TO.N,SD_CS*%
X111760000Y-55880000D03*
D15*
%TO.P,U3,2,SCK*%
%TO.N,SD_SCL*%
X114300000Y-55880000D03*
%TO.P,U3,3,MOSI*%
%TO.N,SD_MOSI*%
X116840000Y-55880000D03*
%TO.P,U3,4,MISO*%
%TO.N,SD_MISO*%
X119380000Y-55880000D03*
%TO.P,U3,5,VCC*%
%TO.N,+5V*%
X121920000Y-55880000D03*
%TO.P,U3,6,GND*%
%TO.N,GND*%
X124460000Y-55880000D03*
%TD*%
D16*
%TO.P,R9,2*%
%TO.N,DIP_8*%
X195580000Y-94970000D03*
%TO.P,R9,1*%
%TO.N,+3V3*%
X195580000Y-98070000D03*
%TD*%
%TO.P,R8,2*%
%TO.N,DIP_7*%
X193040000Y-94970000D03*
%TO.P,R8,1*%
%TO.N,+3V3*%
X193040000Y-98070000D03*
%TD*%
%TO.P,R7,1*%
%TO.N,+3V3*%
X190500000Y-98070000D03*
%TO.P,R7,2*%
%TO.N,DIP_6*%
X190500000Y-94970000D03*
%TD*%
%TO.P,R6,1*%
%TO.N,+3V3*%
X187960000Y-98070000D03*
%TO.P,R6,2*%
%TO.N,DIP_5*%
X187960000Y-94970000D03*
%TD*%
%TO.P,R5,1*%
%TO.N,+3V3*%
X185420000Y-98070000D03*
%TO.P,R5,2*%
%TO.N,DIP_4*%
X185420000Y-94970000D03*
%TD*%
%TO.P,R4,1*%
%TO.N,+3V3*%
X182880000Y-98070000D03*
%TO.P,R4,2*%
%TO.N,DIP_3*%
X182880000Y-94970000D03*
%TD*%
%TO.P,R3,1*%
%TO.N,+3V3*%
X180340000Y-98070000D03*
%TO.P,R3,2*%
%TO.N,DIP_2*%
X180340000Y-94970000D03*
%TD*%
%TO.P,R2,1*%
%TO.N,+3V3*%
X177800000Y-98070000D03*
%TO.P,R2,2*%
%TO.N,DIP_1*%
X177800000Y-94970000D03*
%TD*%
D17*
%TO.P,SW1,1*%
%TO.N,DIP_1*%
X193000000Y-24000000D03*
D18*
%TO.P,SW1,2*%
%TO.N,DIP_2*%
X193000000Y-26540000D03*
%TO.P,SW1,3*%
%TO.N,DIP_3*%
X193000000Y-29080000D03*
%TO.P,SW1,4*%
%TO.N,DIP_4*%
X193000000Y-31620000D03*
%TO.P,SW1,5*%
%TO.N,DIP_5*%
X193000000Y-34160000D03*
%TO.P,SW1,6*%
%TO.N,DIP_6*%
X193000000Y-36700000D03*
%TO.P,SW1,7*%
%TO.N,DIP_7*%
X193000000Y-39240000D03*
%TO.P,SW1,8*%
%TO.N,DIP_8*%
X193000000Y-41780000D03*
%TO.P,SW1,9*%
%TO.N,GND*%
X200620000Y-41780000D03*
%TO.P,SW1,10*%
X200620000Y-39240000D03*
%TO.P,SW1,11*%
X200620000Y-36700000D03*
%TO.P,SW1,12*%
X200620000Y-34160000D03*
%TO.P,SW1,13*%
X200620000Y-31620000D03*
%TO.P,SW1,14*%
X200620000Y-29080000D03*
%TO.P,SW1,15*%
X200620000Y-26540000D03*
%TO.P,SW1,16*%
X200620000Y-24000000D03*
%TD*%
D12*
%TO.P,U4,1,IN*%
%TO.N,+12V*%
X147320000Y-33020000D03*
D13*
%TO.P,U4,2,GND*%
%TO.N,GND*%
X147320000Y-30480000D03*
%TO.P,U4,3,OUT*%
%TO.N,+5V*%
X147320000Y-27940000D03*
%TD*%
D17*
%TO.P,C2,1*%
%TO.N,+5V*%
X114340000Y-43220000D03*
D19*
%TO.P,C2,2*%
%TO.N,GND*%
X119340000Y-43220000D03*
%TD*%
D20*
%TO.P,R1,1*%
%TO.N,+3V3*%
X182880000Y-41552500D03*
%TO.P,R1,2*%
%TO.N,Net-(J4-Pad1)*%
X182880000Y-39727500D03*
%TD*%
D21*
%TO.P,J2,1,Pin_1*%
%TO.N,GND*%
X132080000Y-27940000D03*
D22*
%TO.P,J2,2,Pin_2*%
%TO.N,+12V*%
X127000000Y-27940000D03*
%TD*%
D12*
%TO.P,J4,1,VTref*%
%TO.N,Net-(J4-Pad1)*%
X185420000Y-30480000D03*
D13*
%TO.P,J4,2,SWDIO/TMS*%
%TO.N,JTAG_TMS*%
X185420000Y-33020000D03*
%TO.P,J4,3,GND*%
%TO.N,GND*%
X182880000Y-30480000D03*
%TO.P,J4,4,SWDCLK/TCK*%
%TO.N,JTAG_TCK*%
X182880000Y-33020000D03*
%TO.P,J4,5,GND*%
%TO.N,GND*%
X180340000Y-30480000D03*
%TO.P,J4,6,SWO/TDO*%
%TO.N,JTAG_TDO*%
X180340000Y-33020000D03*
%TO.P,J4,7,KEY*%
%TO.N,unconnected-(J4-Pad7)*%
X177800000Y-30480000D03*
%TO.P,J4,8,NC/TDI*%
%TO.N,JTAG_TDI*%
X177800000Y-33020000D03*
%TO.P,J4,9,GNDDetect*%
%TO.N,GND*%
X175260000Y-30480000D03*
%TO.P,J4,10,~{RESET}*%
%TO.N,JTAG_RST*%
X175260000Y-33020000D03*
%TO.P,J4,11*%
%TO.N,N/C*%
X172720000Y-30480000D03*
%TO.P,J4,12*%
X172720000Y-33020000D03*
%TO.P,J4,13*%
X170180000Y-30480000D03*
%TO.P,J4,14*%
X170180000Y-33020000D03*
%TO.P,J4,15*%
X167640000Y-30480000D03*
%TO.P,J4,16*%
X167640000Y-33020000D03*
%TO.P,J4,17*%
X165100000Y-30480000D03*
%TO.P,J4,18*%
X165100000Y-33020000D03*
%TO.P,J4,19*%
X162560000Y-30480000D03*
%TO.P,J4,20*%
X162560000Y-33020000D03*
%TD*%
D21*
%TO.P,J1,1,Pin_1*%
%TO.N,GND*%
X119380000Y-27940000D03*
D22*
%TO.P,J1,2,Pin_2*%
%TO.N,+5V*%
X114300000Y-27940000D03*
%TD*%
D17*
%TO.P,C1,1*%
%TO.N,+12V*%
X139700000Y-33020000D03*
D19*
%TO.P,C1,2*%
%TO.N,GND*%
X139700000Y-28020000D03*
%TD*%
D23*
%TO.N,DIP_7*%
X173500000Y-51000000D03*
X161000000Y-51000000D03*
%TO.N,DIP_4*%
X166500000Y-93000000D03*
%TO.N,DIP_3*%
X165000000Y-91500000D03*
%TO.N,DIP_2*%
X164000000Y-90000000D03*
%TO.N,DIP_4*%
X185420000Y-93000000D03*
%TO.N,DIP_2*%
X180340000Y-90000000D03*
%TO.N,DIP_3*%
X182880000Y-91500000D03*
%TO.N,JTAG_TDI*%
X153700000Y-79300000D03*
%TO.N,JTAG_TCK*%
X153000000Y-84500000D03*
%TO.N,JTAG_TMS*%
X135000000Y-51500000D03*
%TO.N,DIP_8*%
X195500000Y-88500000D03*
%TO.N,DIP_6*%
X190500000Y-85500000D03*
%TO.N,DIP_5*%
X187960000Y-84040000D03*
%TO.N,SD_MISO*%
X119380000Y-60960000D03*
%TO.N,SD_SCL*%
X127000000Y-50800000D03*
%TO.N,SD_CS*%
X129540000Y-48260000D03*
%TO.N,+3V3*%
X198500000Y-98000000D03*
X182880000Y-53340000D03*
%TO.N,JTAG_TMS*%
X167640000Y-43180000D03*
%TO.N,JTAG_TDI*%
X177800000Y-38100000D03*
%TD*%
D24*
%TO.N,DIP_7*%
X173000000Y-51000000D02*
X173500000Y-51000000D01*
X161000000Y-51000000D02*
X173000000Y-51000000D01*
%TO.N,PN532_CLK*%
X166500000Y-73660000D02*
X162000000Y-73660000D01*
X162000000Y-73660000D02*
X157480000Y-69140000D01*
%TO.N,PN532_MISO*%
X166500000Y-71120000D02*
X162000000Y-71120000D01*
X162000000Y-71120000D02*
X157480000Y-66600000D01*
%TO.N,PN532_IRQ*%
X159260000Y-76000000D02*
X169000000Y-76000000D01*
X157480000Y-74220000D02*
X159260000Y-76000000D01*
X169000000Y-76000000D02*
X169000000Y-60920000D01*
X169000000Y-60920000D02*
X166500000Y-58420000D01*
%TO.N,PN532_MOSI*%
X159360000Y-51360000D02*
X162000000Y-54000000D01*
X157480000Y-51360000D02*
X159360000Y-51360000D01*
X162000000Y-54000000D02*
X162000000Y-64080000D01*
X162000000Y-64080000D02*
X166500000Y-68580000D01*
%TO.N,DIP_1*%
X193000000Y-24000000D02*
X188409520Y-28590480D01*
X188409520Y-28590480D02*
X188409520Y-73590480D01*
X188409520Y-73590480D02*
X178000000Y-84000000D01*
%TO.N,DIP_2*%
X193000000Y-26540000D02*
X189000000Y-30540000D01*
X189000000Y-30540000D02*
X189000000Y-75500000D01*
X189000000Y-75500000D02*
X180340000Y-84160000D01*
X180340000Y-84160000D02*
X180340000Y-90000000D01*
%TO.N,DIP_3*%
X182880000Y-91500000D02*
X182880000Y-84120000D01*
X182880000Y-84120000D02*
X189500000Y-77500000D01*
X189500000Y-77500000D02*
X189500000Y-32580000D01*
X189500000Y-32580000D02*
X193000000Y-29080000D01*
%TO.N,DIP_4*%
X190000000Y-79500000D02*
X190000000Y-36500000D01*
X193000000Y-31620000D02*
X190000000Y-34620000D01*
X190000000Y-34620000D02*
X190000000Y-36500000D01*
%TO.N,DIP_5*%
X190500000Y-81500000D02*
X190500000Y-37000000D01*
X193000000Y-34160000D02*
X190500000Y-36660000D01*
X190500000Y-36660000D02*
X190500000Y-37000000D01*
%TO.N,DIP_6*%
X191000000Y-39000000D02*
X191000000Y-38700000D01*
X191000000Y-38700000D02*
X193000000Y-36700000D01*
X191000000Y-83500000D02*
X191000000Y-39000000D01*
%TO.N,DIP_8*%
X195500000Y-88500000D02*
X195500000Y-84000000D01*
X195500000Y-84000000D02*
X192000000Y-80500000D01*
X192000000Y-80500000D02*
X192000000Y-42780000D01*
X192000000Y-42780000D02*
X193000000Y-41780000D01*
%TO.N,DIP_7*%
X193040000Y-87000000D02*
X193040000Y-84040000D01*
X193040000Y-84040000D02*
X191500000Y-82500000D01*
X191500000Y-40740000D02*
X193000000Y-39240000D01*
X191500000Y-82500000D02*
X191500000Y-40740000D01*
%TO.N,+3V3*%
X195580000Y-98070000D02*
X198430000Y-98070000D01*
X198430000Y-98070000D02*
X198500000Y-98000000D01*
%TO.N,DIP_6*%
X190500000Y-85500000D02*
X190500000Y-84000000D01*
X190500000Y-84000000D02*
X191000000Y-83500000D01*
%TO.N,DIP_5*%
X187960000Y-84040000D02*
X190500000Y-81500000D01*
%TO.N,DIP_4*%
X185420000Y-93000000D02*
X185420000Y-84080000D01*
X185420000Y-84080000D02*
X190000000Y-79500000D01*
X150500000Y-96907151D02*
X150500000Y-68500000D01*
X143520000Y-61520000D02*
X132080000Y-61520000D01*
X152390929Y-98798080D02*
X150500000Y-96907151D01*
X164500000Y-97542868D02*
X163244788Y-98798080D01*
X150500000Y-68500000D02*
X143520000Y-61520000D01*
X164500000Y-93000000D02*
X164500000Y-97542868D01*
X163244788Y-98798080D02*
X152390929Y-98798080D01*
X166500000Y-93000000D02*
X164500000Y-93000000D01*
%TO.N,DIP_3*%
X152577126Y-98348560D02*
X151000000Y-96771434D01*
X141980000Y-58980000D02*
X132080000Y-58980000D01*
X163058591Y-98348560D02*
X152577126Y-98348560D01*
X151000000Y-96771434D02*
X151000000Y-68000000D01*
X164000000Y-97407151D02*
X163058591Y-98348560D01*
X164000000Y-92000000D02*
X164000000Y-97407151D01*
X165000000Y-91500000D02*
X164500000Y-91500000D01*
X151000000Y-68000000D02*
X141980000Y-58980000D01*
X164500000Y-91500000D02*
X164000000Y-92000000D01*
%TO.N,DIP_2*%
X151500000Y-96635717D02*
X151500000Y-67500000D01*
X152763323Y-97899040D02*
X151500000Y-96635717D01*
X162872394Y-97899040D02*
X152763323Y-97899040D01*
X163500000Y-97271434D02*
X162872394Y-97899040D01*
X163500000Y-90500000D02*
X163500000Y-97271434D01*
X164000000Y-90000000D02*
X163500000Y-90500000D01*
X151500000Y-67500000D02*
X140440000Y-56440000D01*
X140440000Y-56440000D02*
X132080000Y-56440000D01*
%TO.N,DIP_4*%
X185420000Y-94970000D02*
X185420000Y-93000000D01*
%TO.N,DIP_3*%
X182880000Y-94970000D02*
X182880000Y-91500000D01*
%TO.N,DIP_2*%
X180340000Y-94970000D02*
X180340000Y-90000000D01*
%TO.N,DIP_1*%
X178000000Y-90000000D02*
X178000000Y-84000000D01*
X178000000Y-90000000D02*
X178000000Y-94770000D01*
X178000000Y-94770000D02*
X177800000Y-94970000D01*
X152000000Y-96500000D02*
X152000000Y-67000000D01*
X152949520Y-97449520D02*
X152000000Y-96500000D01*
X162686197Y-97449520D02*
X152949520Y-97449520D01*
X138900000Y-53900000D02*
X132080000Y-53900000D01*
X163000000Y-97135717D02*
X162686197Y-97449520D01*
X163000000Y-84000000D02*
X163000000Y-97135717D01*
X178000000Y-84000000D02*
X163000000Y-84000000D01*
X152000000Y-67000000D02*
X138900000Y-53900000D01*
%TO.N,JTAG_TMS*%
X135180000Y-51320000D02*
X135000000Y-51500000D01*
X135180000Y-43180000D02*
X135180000Y-51320000D01*
X137160000Y-43180000D02*
X135180000Y-43180000D01*
%TO.N,JTAG_TCK*%
X153000000Y-96500000D02*
X153000000Y-84500000D01*
X153500000Y-97000000D02*
X153000000Y-96500000D01*
X162500000Y-97000000D02*
X153500000Y-97000000D01*
X162560000Y-81440000D02*
X162500000Y-81500000D01*
X162560000Y-81280000D02*
X162560000Y-81440000D01*
X162500000Y-81500000D02*
X162500000Y-97000000D01*
%TO.N,JTAG_TDI*%
X153700000Y-79300000D02*
X154020000Y-79620000D01*
X154020000Y-79620000D02*
X154020000Y-96480000D01*
X160020000Y-78740000D02*
X160020000Y-96480000D01*
X160020000Y-96480000D02*
X154020000Y-96480000D01*
%TO.N,DIP_7*%
X193040000Y-94970000D02*
X193040000Y-87000000D01*
%TO.N,DIP_5*%
X187960000Y-94970000D02*
X187960000Y-84040000D01*
%TO.N,DIP_6*%
X190500000Y-94970000D02*
X190500000Y-85500000D01*
%TO.N,DIP_8*%
X195500000Y-94890000D02*
X195500000Y-88500000D01*
X195580000Y-94970000D02*
X195500000Y-94890000D01*
%TO.N,+5V*%
X114340000Y-38140000D02*
X114300000Y-38100000D01*
X114340000Y-43220000D02*
X114340000Y-38140000D01*
X109220000Y-48260000D02*
X109220000Y-73660000D01*
X114340000Y-43220000D02*
X110673489Y-46886511D01*
X110673489Y-46886511D02*
X110593489Y-46886511D01*
X110593489Y-46886511D02*
X109220000Y-48260000D01*
X109220000Y-73660000D02*
X130100000Y-94540000D01*
X130100000Y-94540000D02*
X132080000Y-94540000D01*
%TO.N,SD_MISO*%
X119380000Y-61520000D02*
X119380000Y-60960000D01*
X132080000Y-74220000D02*
X119380000Y-61520000D01*
%TO.N,SD_MOSI*%
X132080000Y-71680000D02*
X116840000Y-56440000D01*
X116840000Y-56440000D02*
X116840000Y-55880000D01*
%TO.N,SD_SCL*%
X127000000Y-64060000D02*
X127000000Y-50800000D01*
X132080000Y-69140000D02*
X127000000Y-64060000D01*
%TO.N,SD_CS*%
X129540000Y-61520000D02*
X129540000Y-48260000D01*
X132080000Y-64060000D02*
X129540000Y-61520000D01*
%TO.N,+5V*%
X114340000Y-43220000D02*
X121920000Y-50800000D01*
X121920000Y-55880000D02*
X121920000Y-50800000D01*
%TO.N,+3V3*%
X193040000Y-98070000D02*
X195580000Y-98070000D01*
X190500000Y-98070000D02*
X193040000Y-98070000D01*
X187960000Y-98070000D02*
X190500000Y-98070000D01*
X185420000Y-98070000D02*
X187960000Y-98070000D01*
X182880000Y-98070000D02*
X185420000Y-98070000D01*
X180340000Y-98070000D02*
X182880000Y-98070000D01*
X177800000Y-98070000D02*
X180340000Y-98070000D01*
X182880000Y-53340000D02*
X182880000Y-41552500D01*
%TO.N,Net-(J4-Pad1)*%
X187960000Y-35560000D02*
X183792500Y-39727500D01*
X183792500Y-39727500D02*
X182880000Y-39727500D01*
%TO.N,JTAG_TCK*%
X177800000Y-40640000D02*
X177800000Y-81280000D01*
X182880000Y-33020000D02*
X182880000Y-35560000D01*
X182880000Y-35560000D02*
X177800000Y-40640000D01*
X177800000Y-81280000D02*
X162560000Y-81280000D01*
%TO.N,JTAG_TDI*%
X177800000Y-38100000D02*
X175260000Y-40640000D01*
X175260000Y-40640000D02*
X175260000Y-78740000D01*
X175260000Y-78740000D02*
X160020000Y-78740000D01*
%TO.N,+12V*%
X127000000Y-27940000D02*
X127000000Y-30480000D01*
X139700000Y-33020000D02*
X147320000Y-33020000D01*
X129540000Y-33020000D02*
X139700000Y-33020000D01*
X127000000Y-30480000D02*
X129540000Y-33020000D01*
%TO.N,+5V*%
X149860000Y-38100000D02*
X114300000Y-38100000D01*
X114300000Y-27940000D02*
X114300000Y-38100000D01*
X149860000Y-27940000D02*
X149860000Y-38100000D01*
X147320000Y-27940000D02*
X149860000Y-27940000D01*
%TO.N,JTAG_TMS*%
X157480000Y-43180000D02*
X137160000Y-43180000D01*
X167640000Y-43180000D02*
X157480000Y-43180000D01*
%TO.N,JTAG_TDO*%
X154940000Y-45720000D02*
X154940000Y-86360000D01*
X154940000Y-86360000D02*
X155500000Y-86920000D01*
X167640000Y-45720000D02*
X154940000Y-45720000D01*
X180340000Y-33020000D02*
X167640000Y-45720000D01*
X155500000Y-86920000D02*
X157480000Y-86920000D01*
%TO.N,JTAG_RST*%
X134060000Y-51360000D02*
X132080000Y-51360000D01*
X134620000Y-40640000D02*
X134620000Y-50800000D01*
X175260000Y-33020000D02*
X167640000Y-40640000D01*
X167640000Y-40640000D02*
X134620000Y-40640000D01*
X134620000Y-50800000D02*
X134060000Y-51360000D01*
%TO.N,Net-(J4-Pad1)*%
X187960000Y-35560000D02*
X187960000Y-33020000D01*
X185420000Y-30480000D02*
X187960000Y-33020000D01*
%TD*%
M02*
