%TF.GenerationSoftware,KiCad,Pcbnew,6.0.2+dfsg-1*%
%TF.CreationDate,2023-04-19T21:44:13+02:00*%
%TF.ProjectId,login-controller,6c6f6769-6e2d-4636-9f6e-74726f6c6c65,rev?*%
%TF.SameCoordinates,Original*%
%TF.FileFunction,Soldermask,Top*%
%TF.FilePolarity,Negative*%
%FSLAX46Y46*%
G04 Gerber Fmt 4.6, Leading zero omitted, Abs format (unit mm)*
G04 Created by KiCad (PCBNEW 6.0.2+dfsg-1) date 2023-04-19 21:44:13*
%MOMM*%
%LPD*%
G01*
G04 APERTURE LIST*
G04 Aperture macros list*
%AMRoundRect*
0 Rectangle with rounded corners*
0 $1 Rounding radius*
0 $2 $3 $4 $5 $6 $7 $8 $9 X,Y pos of 4 corners*
0 Add a 4 corners polygon primitive as box body*
4,1,4,$2,$3,$4,$5,$6,$7,$8,$9,$2,$3,0*
0 Add four circle primitives for the rounded corners*
1,1,$1+$1,$2,$3*
1,1,$1+$1,$4,$5*
1,1,$1+$1,$6,$7*
1,1,$1+$1,$8,$9*
0 Add four rect primitives between the rounded corners*
20,1,$1+$1,$2,$3,$4,$5,0*
20,1,$1+$1,$4,$5,$6,$7,0*
20,1,$1+$1,$6,$7,$8,$9,0*
20,1,$1+$1,$8,$9,$2,$3,0*%
G04 Aperture macros list end*
%ADD10R,1.560000X1.560000*%
%ADD11C,1.560000*%
%ADD12R,1.700000X1.700000*%
%ADD13O,1.700000X1.700000*%
%ADD14R,1.524000X1.524000*%
%ADD15C,1.524000*%
%ADD16RoundRect,0.250000X0.625000X-0.400000X0.625000X0.400000X-0.625000X0.400000X-0.625000X-0.400000X0*%
%ADD17R,1.600000X1.600000*%
%ADD18O,1.600000X1.600000*%
%ADD19C,1.600000*%
%ADD20RoundRect,0.250000X0.450000X-0.262500X0.450000X0.262500X-0.450000X0.262500X-0.450000X-0.262500X0*%
%ADD21R,3.000000X3.000000*%
%ADD22C,3.000000*%
G04 APERTURE END LIST*
D10*
%TO.C,U1*%
X132080000Y-48820000D03*
D11*
X132080000Y-51360000D03*
X132080000Y-53900000D03*
X132080000Y-56440000D03*
X132080000Y-58980000D03*
X132080000Y-61520000D03*
X132080000Y-64060000D03*
X132080000Y-66600000D03*
X132080000Y-69140000D03*
X132080000Y-71680000D03*
X132080000Y-74220000D03*
X132080000Y-76760000D03*
X132080000Y-79300000D03*
X132080000Y-81840000D03*
X132080000Y-84380000D03*
X132080000Y-86920000D03*
X132080000Y-89460000D03*
X132080000Y-92000000D03*
X132080000Y-94540000D03*
X157480000Y-48820000D03*
X157480000Y-51360000D03*
X157480000Y-53900000D03*
X157480000Y-56440000D03*
X157480000Y-58980000D03*
X157480000Y-61520000D03*
X157480000Y-64060000D03*
X157480000Y-66600000D03*
X157480000Y-69140000D03*
X157480000Y-71680000D03*
X157480000Y-74220000D03*
X157480000Y-76760000D03*
X157480000Y-79300000D03*
X157480000Y-81840000D03*
X157480000Y-84380000D03*
X157480000Y-86920000D03*
X157480000Y-89460000D03*
X157480000Y-92000000D03*
X157480000Y-94540000D03*
%TD*%
D12*
%TO.C,U2*%
X166500000Y-73660000D03*
D13*
X166500000Y-71120000D03*
X166500000Y-68580000D03*
X166500000Y-66040000D03*
X166500000Y-63500000D03*
X166500000Y-60960000D03*
X166500000Y-58420000D03*
X166500000Y-55880000D03*
%TD*%
D14*
%TO.C,U3*%
X111760000Y-55880000D03*
D15*
X114300000Y-55880000D03*
X116840000Y-55880000D03*
X119380000Y-55880000D03*
X121920000Y-55880000D03*
X124460000Y-55880000D03*
%TD*%
D16*
%TO.C,R9*%
X195580000Y-94970000D03*
X195580000Y-98070000D03*
%TD*%
%TO.C,R8*%
X193040000Y-94970000D03*
X193040000Y-98070000D03*
%TD*%
%TO.C,R7*%
X190500000Y-98070000D03*
X190500000Y-94970000D03*
%TD*%
%TO.C,R6*%
X187960000Y-98070000D03*
X187960000Y-94970000D03*
%TD*%
%TO.C,R5*%
X185420000Y-98070000D03*
X185420000Y-94970000D03*
%TD*%
%TO.C,R4*%
X182880000Y-98070000D03*
X182880000Y-94970000D03*
%TD*%
%TO.C,R3*%
X180340000Y-98070000D03*
X180340000Y-94970000D03*
%TD*%
%TO.C,R2*%
X177800000Y-98070000D03*
X177800000Y-94970000D03*
%TD*%
D17*
%TO.C,SW1*%
X193000000Y-24000000D03*
D18*
X193000000Y-26540000D03*
X193000000Y-29080000D03*
X193000000Y-31620000D03*
X193000000Y-34160000D03*
X193000000Y-36700000D03*
X193000000Y-39240000D03*
X193000000Y-41780000D03*
X200620000Y-41780000D03*
X200620000Y-39240000D03*
X200620000Y-36700000D03*
X200620000Y-34160000D03*
X200620000Y-31620000D03*
X200620000Y-29080000D03*
X200620000Y-26540000D03*
X200620000Y-24000000D03*
%TD*%
D12*
%TO.C,U4*%
X147320000Y-33020000D03*
D13*
X147320000Y-30480000D03*
X147320000Y-27940000D03*
%TD*%
D17*
%TO.C,C2*%
X114340000Y-43220000D03*
D19*
X119340000Y-43220000D03*
%TD*%
D20*
%TO.C,R1*%
X182880000Y-41552500D03*
X182880000Y-39727500D03*
%TD*%
D21*
%TO.C,J2*%
X132080000Y-27940000D03*
D22*
X127000000Y-27940000D03*
%TD*%
D12*
%TO.C,J4*%
X185420000Y-30480000D03*
D13*
X185420000Y-33020000D03*
X182880000Y-30480000D03*
X182880000Y-33020000D03*
X180340000Y-30480000D03*
X180340000Y-33020000D03*
X177800000Y-30480000D03*
X177800000Y-33020000D03*
X175260000Y-30480000D03*
X175260000Y-33020000D03*
X172720000Y-30480000D03*
X172720000Y-33020000D03*
X170180000Y-30480000D03*
X170180000Y-33020000D03*
X167640000Y-30480000D03*
X167640000Y-33020000D03*
X165100000Y-30480000D03*
X165100000Y-33020000D03*
X162560000Y-30480000D03*
X162560000Y-33020000D03*
%TD*%
D21*
%TO.C,J1*%
X119380000Y-27940000D03*
D22*
X114300000Y-27940000D03*
%TD*%
D17*
%TO.C,C1*%
X139700000Y-33020000D03*
D19*
X139700000Y-28020000D03*
%TD*%
M02*
