<svg xmlns="http://www.w3.org/2000/svg" version="1.1" xmlns:xlink="http://www.w3.org/1999/xlink" xmlns:svgjs="http://svgjs.dev/svgjs" width="1000" height="300" viewBox="0 0 1000 300"><g transform="matrix(1,0,0,1,-0.6060534978444139,-0.5894349413396753)"><svg viewBox="0 0 396 119" data-background-color="#ffffff" preserveAspectRatio="xMidYMid meet" height="300" width="1000" xmlns="http://www.w3.org/2000/svg" xmlns:xlink="http://www.w3.org/1999/xlink"><g id="tight-bounds" transform="matrix(1,0,0,1,0.2399974223038157,0.23380974015154266)"><svg viewBox="0 0 395.52 118.53238106645044" height="118.53238106645044" width="395.52"><g><svg viewBox="0 0 589.2693747546933 176.59663753846152" height="118.53238106645044" width="395.52"><g><rect width="11.523637497068309" height="153.34006153846153" x="425.68659030646154" y="11.628287999999998" fill="#000000" opacity="1" stroke-width="0" stroke="transparent" fill-opacity="1" class="rect-o-0" data-fill-palette-color="primary" rx="1%" id="o-0" data-palette-color="#000000"></rect></g><g transform="matrix(1,0,0,1,0,24.40662646153845)"><svg viewBox="0 0 395.52 127.78338461538462" height="127.78338461538462" width="395.52"><g><svg viewBox="0 0 395.52 127.78338461538462" height="127.78338461538462" width="395.52" id="textblock"><g><svg viewBox="0 0 395.52 127.78338461538462" height="127.78338461538462" width="395.52"><g transform="matrix(1,0,0,1,0,0)"><svg width="395.52" viewBox="2.390000104904175 -37.380001068115234 117.43000030517578 37.94000244140625" height="127.78338461538462" data-palette-color="#000000"><path d="M24.46-13.94L24.46-16.58 38.89-16.58 38.89-13.94 37.52-13.94Q36.79-13.94 36.41-13.71 36.04-13.48 36.04-12.84L36.04-12.84 36.04-2.29Q34.28-2.29 32.13-1.56L32.13-1.56 29-0.54Q25.51 0.56 21.47 0.56 17.43 0.56 13.83-0.89 10.23-2.34 7.69-4.86 5.15-7.37 3.77-10.77 2.39-14.16 2.39-17.59 2.39-21.02 3.11-23.63 3.83-26.25 5.13-28.39 6.42-30.54 8.22-32.21 10.01-33.89 12.16-35.03L12.16-35.03Q16.58-37.38 21.78-37.38L21.78-37.38Q29.81-37.38 34.52-34.89L34.52-34.89 33.96-28.86 32.35-28.86Q32.35-31.1 29.57-32.69L29.57-32.69Q26.49-34.45 21.66-34.45L21.66-34.45Q15.38-34.45 11.23-29.93L11.23-29.93Q7.18-25.54 7.18-19.26L7.18-19.26Q7.18-12.38 10.99-7.54L10.99-7.54Q15.09-2.37 22.05-2.37L22.05-2.37Q29.71-2.37 31.08-5.66L31.08-5.66Q31.49-6.69 31.49-7.89L31.49-7.89 31.49-12.84Q31.49-13.5 31.12-13.72 30.74-13.94 30.1-13.94L30.1-13.94 24.46-13.94ZM69.41-31.23L69.41-31.23Q70.07-29.54 70.07-27.39 70.07-25.24 69.39-23.49 68.72-21.73 67.45-20.46L67.45-20.46Q65.04-18.04 60.35-17.07L60.35-17.07 60.79-17.87 70.43-3.22 72.14-2.47 75.58-2.08 75.58 0 67.21 0 56.22-17.55 58.27-16.67 51.73-16.67 51.73-2.64 55.39-2.08 55.39 0 43.43 0 43.43-2.08 47.21-2.64 47.21-34.18 43.43-34.74 43.43-36.82 55.47-36.82Q67.16-36.82 69.41-31.23ZM55.71-33.86L51.73-33.86 51.73-19.31 55.34-19.31Q63.25-19.31 64.91-23.93L64.91-23.93Q65.43-25.32 65.43-26.94 65.43-28.56 64.96-29.86 64.5-31.15 63.4-32.03L63.4-32.03Q61.13-33.86 55.71-33.86L55.71-33.86ZM77.36-34.74L77.36-36.82 89.33-36.82 89.33-34.74 85.64-34.18 85.64-2.64 89.33-2.08 89.33 0 77.36 0 77.36-2.08 81.12-2.64 81.12-34.18 77.36-34.74ZM106.54 0L93.43 0 93.43-2.08 97.14-2.64 97.14-34.18 93.43-34.74 93.43-36.82 105.46-36.82Q115.86-36.82 118.74-31.2L118.74-31.2Q119.82-29.13 119.82-26.21 119.82-23.29 118.85-21.04 117.89-18.8 115.98-17.24L115.98-17.24Q112.05-13.96 104.66-13.96L104.66-13.96 101.73-13.96 101.73-2.64 106.54-2.08 106.54 0ZM104.88-33.86L101.73-33.86 101.73-16.55 105.34-16.55Q110.2-16.55 112.76-19.14L112.76-19.14Q115.03-21.48 115.03-25.46L115.03-25.46Q115.03-29.57 112.86-31.59L112.86-31.59Q110.44-33.86 104.88-33.86L104.88-33.86Z" opacity="1" transform="matrix(1,0,0,1,0,0)" fill="#000000" class="undefined-text-0" data-fill-palette-color="primary" id="text-0"></path></svg></g></svg></g></svg></g></svg></g><g transform="matrix(1,0,0,1,467.3768181099914,0)"><svg viewBox="0 0 121.89255664470195 176.59663753846152" height="176.59663753846152" width="121.89255664470195"><g><svg xmlns="http://www.w3.org/2000/svg" xmlns:xlink="http://www.w3.org/1999/xlink" version="1.1" x="0" y="0" viewBox="21.399991989135742 8.600000381469727 57.08214569091797 82.70000457763672" enable-background="new 0 0 100 100" xml:space="preserve" height="176.59663753846152" width="121.89255664470195" class="icon-icon-0" data-fill-palette-color="accent" id="icon-0"><g fill="#000000" data-fill-palette-color="accent"><path d="M78.2 29.5C77.4 22.9 71.7 18 65.1 18h-4.6v-3c0-1.7-0.7-3.3-1.9-4.5-1.2-1.2-2.8-1.9-4.5-1.9-1.7 0-3.2 0.7-4.4 1.7-1.2-1.1-2.7-1.7-4.4-1.7-1.7 0-3.2 0.7-4.4 1.8-1.1-1.1-2.7-1.7-4.4-1.7-2.5 0-4.6 1.4-5.6 3.4-0.9-0.5-2-0.8-3.1-0.8-3.5 0-6.4 2.9-6.4 6.4v31.9c0 0.3 0.1 0.6 0.2 0.9 0.6 1.1 5.6 10.5 8.5 13.9v2.7c-2.5 0.3-4.5 2.5-4.5 5.1 0 2.9 2.3 5.2 5.2 5.2h0l-4 11.3c-0.2 0.6-0.1 1.3 0.2 1.8 0.4 0.5 1 0.8 1.6 0.8H67c0 0 0 0 0 0 1.1 0 2-0.9 2-2 0-0.3-0.1-0.6-0.2-0.9l-4-11.1h0c2.9 0 5.2-2.3 5.2-5.2S67.7 67 64.9 67H64v-6.3C77.7 50.4 79.3 38.1 78.2 29.5zM54.2 12.7c0.6 0 1.2 0.2 1.7 0.7 0.4 0.4 0.7 1 0.7 1.7v3h-4.7v-3C51.8 13.7 52.8 12.7 54.2 12.7zM43 15c0-1.3 1.1-2.4 2.4-2.4 0.6 0 1.2 0.2 1.7 0.7 0.4 0.4 0.7 1 0.7 1.7v3c-1.6 0.1-3.1 0.7-4.3 1.9-0.2 0.2-0.3 0.4-0.5 0.5V15L43 15zM43 28.3c1 1.3 2.4 2.1 4.1 2.4-0.4 0.5-1 0.7-1.7 0.7-1.3 0-2.4-1.1-2.4-2.4V28.3zM36.7 12.7c1.3 0 2.4 1.1 2.4 2.4v14 0c0 1.3-1.1 2.4-2.4 2.4s-2.4-1.1-2.4-2.4v-0.8c0 0 0 0 0 0V17.7c0 0 0 0 0 0V15C34.3 13.7 35.3 12.7 36.7 12.7zM25.5 26.1v-8.5c0-1.3 1.1-2.4 2.4-2.4 0.6 0 1.2 0.2 1.7 0.7 0.4 0.4 0.7 1 0.7 1.7v10.6c0 1.3-1 2.3-2.4 2.4-1.3 0-2.4-1.1-2.4-2.4V26.1zM64.2 87.3H31.7l3.6-10h25.3L64.2 87.3zM66 72.2c0 0.6-0.5 1.2-1.2 1.2H62 33.8 31c-0.6 0-1.2-0.5-1.2-1.2S30.3 71 31 71h1.3c0 0 0 0 0 0s0 0 0 0H62c0 0 0 0 0 0s0 0 0 0h2.8C65.5 71 66 71.5 66 72.2zM34.3 67v-3.5c0-0.6-0.2-1.1-0.6-1.5-1.7-1.5-5.8-8.6-8.1-13V34.2c0.7 0.3 1.5 0.5 2.4 0.5 0 0 0.1 0 0.1 0 1.4 0 2.8-0.5 3.8-1.4 1.2 1.3 2.9 2.2 4.8 2.2 1.7 0 3.2-0.7 4.4-1.8 1.1 1.1 2.7 1.7 4.4 1.7 1.7 0 3.2-0.7 4.4-1.8 1.1 1.1 2.7 1.8 4.4 1.8 1.9 0 3.5-0.8 4.7-2.1v2c-9.5 3-11 15.1-11.1 15.6-0.1 1.1 0.7 2.1 1.8 2.2 1.1 0.1 2.1-0.7 2.2-1.8 0-0.1 1.4-11.1 9.5-12.6 1-0.2 1.6-1 1.6-2v-8.2c0-1.1-0.9-2-2-2H48c-1.3 0-2.4-1.1-2.4-2.4 0-0.6 0.3-1.2 0.7-1.7 0.5-0.5 1.1-0.7 1.7-0.7h1.7c0 0 0 0 0 0s0 0 0 0h8.7c0 0 0 0 0 0s0 0 0 0h6.5c4.6 0 8.5 3.4 9.1 8 1 7.7-0.5 18.8-13.4 28.1-0.5 0.4-0.8 1-0.8 1.6V67H34.3zM52.5 30.7h3.3c-0.4 0.4-1 0.7-1.6 0.7S52.9 31.2 52.5 30.7z" fill="#000000" data-fill-palette-color="accent"></path></g></svg></g></svg></g></svg></g><defs></defs></svg><rect width="395.52" height="118.53238106645044" fill="none" stroke="none" visibility="hidden"></rect></g></svg></g></svg>